<?xml version="1.0" encoding="utf-8"?>
<!-- Generator: Adobe Illustrator 16.0.0, SVG Export Plug-In . SVG Version: 6.00 Build 0)  -->
<!DOCTYPE svg PUBLIC "-//W3C//DTD SVG 1.1//EN" "http://www.w3.org/Graphics/SVG/1.1/DTD/svg11.dtd">
<svg version="1.1" id="Layer_1" xmlns="http://www.w3.org/2000/svg" xmlns:xlink="http://www.w3.org/1999/xlink" x="0px" y="0px"
	 width="134.965px" height="33.957px" viewBox="0 0 134.965 33.957" enable-background="new 0 0 134.965 33.957"
	 xml:space="preserve">
<linearGradient id="SVGID_1_" gradientUnits="userSpaceOnUse" x1="67.4819" y1="0" x2="67.4819" y2="33.9575">
	<stop  offset="0" style="stop-color:#E24F2A"/>
	<stop  offset="1" style="stop-color:#C53E27"/>
</linearGradient>
<path fill="url(#SVGID_1_)" d="M134.965,16.994c0,1.21-0.462,2.421-1.389,3.345l-12.329,12.353l-0.002,0.005
	c-0.847,0.774-1.974,1.247-3.212,1.247L4.746,33.957C2.124,33.957,0,31.84,0,29.227v-12.24V4.73C0,2.117,2.124,0,4.746,0
	l113.275,0.018c1.237,0,2.365,0.473,3.212,1.247l0.001,0.005l12.342,12.364c0.927,0.924,1.389,2.135,1.389,3.345V16.994z"/>
</svg>
