<?xml version="1.0" encoding="utf-8"?>
<!-- Generator: Adobe Illustrator 16.0.0, SVG Export Plug-In . SVG Version: 6.00 Build 0)  -->
<!DOCTYPE svg PUBLIC "-//W3C//DTD SVG 1.1//EN" "http://www.w3.org/Graphics/SVG/1.1/DTD/svg11.dtd">
<svg version="1.1" id="Layer_1" xmlns="http://www.w3.org/2000/svg" xmlns:xlink="http://www.w3.org/1999/xlink" x="0px" y="0px"
	 width="204px" height="36px" viewBox="0 0 204 36" enable-background="new 0 0 204 36" xml:space="preserve">
<path fill="#FFFFFF" d="M5.818,36.01L5.818,36.01c-3.169,0-5.747-2.574-5.747-5.738V5.73c0-3.165,2.578-5.739,5.747-5.739
	l180.33,0.017c1.442,0,2.823,0.537,3.889,1.512l0.149,0.15l12.23,12.274c1.084,1.082,1.682,2.523,1.682,4.057
	c0.001,1.548-0.597,2.989-1.684,4.074l-12.363,12.407c-1.063,0.977-2.444,1.514-3.89,1.514L5.818,36.01z M5.818,1.991
	c-2.066,0-3.747,1.677-3.747,3.739v24.542c0,2.062,1.681,3.738,3.747,3.738l180.344-0.014c0.924,0,1.808-0.336,2.494-0.948
	l12.345-12.387c0.709-0.708,1.099-1.646,1.099-2.645c-0.001-1.014-0.391-1.953-1.098-2.659l-12.35-12.393
	c-0.69-0.617-1.578-0.957-2.504-0.957L5.818,1.991z"/>
</svg>
