<?xml version="1.0" encoding="utf-8"?>
<!-- Generator: Adobe Illustrator 16.0.0, SVG Export Plug-In . SVG Version: 6.00 Build 0)  -->
<!DOCTYPE svg PUBLIC "-//W3C//DTD SVG 1.1//EN" "http://www.w3.org/Graphics/SVG/1.1/DTD/svg11.dtd">
<svg version="1.1" id="Layer_1" xmlns="http://www.w3.org/2000/svg" xmlns:xlink="http://www.w3.org/1999/xlink" x="0px" y="0px"
	 width="134px" height="36px" viewBox="0 0 134 36" enable-background="new 0 0 134 36" xml:space="preserve">
<path fill="#FFFFFF" d="M5.817,36.041L5.817,36.041c-3.168,0-5.746-2.57-5.746-5.73V5.814c0-3.16,2.578-5.73,5.746-5.73
	l110.275,0.017c1.441,0,2.821,0.536,3.887,1.51l0.247,0.25l12.129,12.15c1.084,1.08,1.682,2.52,1.682,4.052
	c0,1.547-0.598,2.987-1.684,4.069L119.99,34.52c-1.065,0.973-2.445,1.508-3.887,1.508L5.817,36.041z M5.817,2.084
	c-2.065,0-3.746,1.673-3.746,3.73v24.497c0,2.057,1.68,3.73,3.746,3.73l110.287-0.014c0.92,0,1.802-0.334,2.49-0.941l12.345-12.369
	c0.709-0.706,1.098-1.642,1.098-2.639c0-1.012-0.389-1.948-1.096-2.652L118.577,3.041c-0.688-0.606-1.568-0.94-2.485-0.94
	L5.817,2.084z"/>
</svg>
