<?xml version="1.0" encoding="utf-8"?>
<!-- Generator: Adobe Illustrator 16.0.0, SVG Export Plug-In . SVG Version: 6.00 Build 0)  -->
<!DOCTYPE svg PUBLIC "-//W3C//DTD SVG 1.1//EN" "http://www.w3.org/Graphics/SVG/1.1/DTD/svg11.dtd">
<svg version="1.1" id="Layer_1" xmlns="http://www.w3.org/2000/svg" xmlns:xlink="http://www.w3.org/1999/xlink" x="0px" y="0px"
	 width="49.921px" height="49.922px" viewBox="0 0 49.921 49.922" enable-background="new 0 0 49.921 49.922" xml:space="preserve">
<g>
	<path fill="#DBDADA" d="M24.35,27.322L24.35,27.322c-0.068,2.559,6.109,0.96,8.23,0.337c-0.167,2.034-0.835,3.728-1.803,5.069
		c-8.227-3.361-6.428-5.408-6.428-5.408V27.322z M24.35,27.323c1.079,2.438,6.465-1.808,7.975-3.278
		c-0.379-1.718-1.146-3.664-2.436-5.878c-0.59,4.177-1.618,6.511-2.412,7.903C25.964,28.727,24.356,27.33,24.35,27.323
		 M49.921,24.961c0,13.785-11.175,24.961-24.959,24.961C11.174,49.922,0,38.746,0,24.961S11.174,0,24.962,0
		C38.746,0,49.921,11.176,49.921,24.961 M16.882,23.949c2.192,0.209,8.894,1.045,7.468,3.371c2.536-1.705-3.915-5.025-6.137-5.203
		C17.772,22.719,17.251,23.324,16.882,23.949 M26.36,11.264c-0.013-0.016-0.059-0.055-0.124-0.095
		c-0.004-0.007-0.009-0.013-0.014-0.019c0,0-0.055-0.035-0.11-0.051c-0.009-0.003-0.02,0-0.031,0.002
		c-0.121-0.039-0.268-0.047-0.425,0.037c-0.357,0.189-0.344,0.492-0.19,0.807c0.034,0.145,0.084,0.319,0.156,0.533
		c0.055,0.166,2.042,6.486,1.676,10.818c-0.253,3.012-0.988,4.398-2.876,4.026c0.612,0.003,4.392-0.808-1.624-9.92
		c-0.651,0.722-1.2,1.261-1.896,1.91c7.463,6.4,3.485,7.99,3.447,8.007l0,0l0,0c0.008-0.023,0.918-2.501-8.521,0.091
		c-0.14,2.077,0.343,3.42,0.343,3.42c7.37-6.192,8.176-3.511,8.176-3.511c-1.781-1.779-5.24,6.103-5.674,7.121
		c1.144,1.205,3.087,1.874,3.337,1.961c1.621,0.743,4.064,0.626,5.149,0.385c2.571-0.574,4.802-2.124,6.15-4.059
		C36.287,28.453,36.234,23.113,26.36,11.264 M27.048,35.771c-1.084-1.771-4.708-7.952-2.703-8.448c0,0-2.832-0.637-2.333,9.08
		C23.553,36.748,25.362,36.531,27.048,35.771"/>
</g>
</svg>
