<?xml version="1.0" encoding="utf-8"?>
<!-- Generator: Adobe Illustrator 16.0.0, SVG Export Plug-In . SVG Version: 6.00 Build 0)  -->
<!DOCTYPE svg PUBLIC "-//W3C//DTD SVG 1.1//EN" "http://www.w3.org/Graphics/SVG/1.1/DTD/svg11.dtd">
<svg version="1.1" id="Layer_1" xmlns="http://www.w3.org/2000/svg" xmlns:xlink="http://www.w3.org/1999/xlink" x="0px" y="0px"
	 width="90.876px" height="64.023px" viewBox="0 0 90.876 64.023" enable-background="new 0 0 90.876 64.023" xml:space="preserve">
<path fill="#DBDADA" d="M405.406-127.053v39.178h39.176v-39.178H405.406z M440.127-92.331H409.86v-30.265h30.268V-92.331z"/>
<g>
	<g opacity="0.75">
		<path fill="#BCBCBC" d="M64.153,45.087l26.42,0.114L45.407,0.125l0,0H0.305l22.723,22.408l-9.391,9.391l31.835,31.922l0,0
			L64.153,45.087z M88.14,44.188l-22.993-0.1L76.57,32.617L88.14,44.188z M75.823,31.924L63.665,44.082l-17.21-0.075L46.412,2.515
			L75.823,31.924z M45.408,1.571l0.043,41.968L24.446,22.533L45.408,1.571z M46.456,45.01l16.21,0.07L46.472,61.274L46.456,45.01z
			 M2.743,1.146l41.696-0.024L23.737,21.824L2.743,1.146z M45.439,62.307L15.055,31.924l8.682-8.682l21.715,21.716l0.018,17.318
			L45.439,62.307z"/>
		<path fill="#BCBCBC" d="M45.472,64.023l-0.088-0.089L13.46,31.924l9.391-9.39L0,0h45.458l0.037,0.037l45.381,45.291l-26.672-0.116
			L45.472,64.023z M13.813,31.924l31.658,31.745l18.629-18.707h0.052l26.116,0.113L45.355,0.25H0.609l22.596,22.283L13.813,31.924z
			 M45.439,62.483L14.878,31.924l8.859-8.858l21.84,21.841v0.052l0.018,17.371L45.439,62.483z M15.232,31.924l30.113,30.111
			L45.327,45.01l-21.59-21.591L15.232,31.924z M46.348,61.576l-0.017-16.691l16.636,0.072L46.348,61.576z M46.581,45.135
			l0.016,15.838l15.769-15.77L46.581,45.135z M88.443,44.314l-23.596-0.103L76.57,32.44L88.443,44.314z M65.447,43.964l22.39,0.097
			L76.57,32.794L65.447,43.964z M63.716,44.207h-0.052l-17.335-0.076v-0.125L46.287,2.212L76,31.924L63.716,44.207z M46.579,43.882
			l17.034,0.075l12.033-12.033L46.538,2.817L46.579,43.882z M45.577,43.841L24.27,22.533L45.532,1.27l0,0.301L45.577,43.841z
			 M24.623,22.533l20.703,20.704L45.283,1.873L24.623,22.533z M23.737,22l-0.088-0.087L2.438,1.021h0.305l41.998-0.024L23.737,22z
			 M3.048,1.271l20.688,20.377L44.137,1.246L3.048,1.271z"/>
	</g>
	<path opacity="0.75" fill="#BCBCBC" d="M50.363,25.576v-3.516h1.039v3.49c0,0.925,0.515,1.526,1.484,1.526
		c0.968,0,1.483-0.602,1.483-1.526v-3.49h1.039v3.516c0,1.44-0.829,2.409-2.522,2.409C51.201,27.985,50.363,27.017,50.363,25.576z"
		/>
	<path opacity="0.75" fill="#BCBCBC" d="M57.259,24.975c0-1.798,1.335-3.01,3.054-3.01c1.169,0,1.903,0.603,2.331,1.3l-0.865,0.453
		c-0.278-0.488-0.846-0.846-1.466-0.846c-1.152,0-2.007,0.872-2.007,2.103c0,1.212,0.854,2.103,2.007,2.103
		c0.62,0,1.188-0.366,1.466-0.846l0.874,0.437c-0.446,0.698-1.17,1.317-2.34,1.317C58.595,27.985,57.259,26.764,57.259,24.975z"/>
	<path opacity="0.75" fill="#BCBCBC" d="M50.11,32.415c0-1.832,1.361-3.011,3.054-3.011c1.134,0,1.877,0.541,2.339,1.204l-0.83,0.48
		c-0.314-0.438-0.864-0.776-1.51-0.776c-1.151,0-2.007,0.872-2.007,2.103c0,1.213,0.855,2.104,2.007,2.104
		c0.594,0,1.117-0.271,1.379-0.524v-0.897h-1.746v-0.899h2.757v2.173c-0.567,0.637-1.388,1.064-2.391,1.064
		C51.472,35.435,50.11,34.238,50.11,32.415z"/>
	<path opacity="0.75" fill="#BCBCBC" d="M57.486,35.321v-5.82h2.165c1.823,0,3.046,1.204,3.046,2.906
		c0,1.719-1.223,2.914-3.038,2.914H57.486z M61.649,32.407c0-1.118-0.698-2.008-1.99-2.008h-1.152v4.023h1.144
		C60.916,34.423,61.649,33.515,61.649,32.407z"/>
</g>
<g id="g3099_1_" transform="matrix(0.55912573,0,0,0.55912573,-580.3448,-883.96648)">
	<path id="path3101_1_" inkscape:connector-curvature="0" fill="#DBDADA" d="M1656.338,1626.89
		c-19.754,0-35.771,16.011-35.771,35.767s16.017,35.767,35.771,35.767s35.77-16.011,35.77-35.767S1676.092,1626.89,1656.338,1626.89
		z M1651.089,1645.554c10.506,0,21.552,2.162,29.625,6.906c1.093,0.615,1.848,1.542,1.848,3.249c0,1.948-1.568,3.35-3.375,3.35
		c-0.729,0-1.163-0.178-1.84-0.552c-6.481-3.883-16.53-6.019-26.239-6.019c-4.854,0-9.78,0.491-14.295,1.719
		c-0.522,0.129-1.175,0.389-1.833,0.389c-1.907,0-3.371-1.509-3.371-3.418c0-1.944,1.203-3.036,2.501-3.42
		C1639.207,1646.258,1644.903,1645.554,1651.089,1645.554z M1650.359,1657.847c9.359,0,18.42,2.333,25.542,6.597
		c1.196,0.683,1.634,1.551,1.634,2.826c0,1.549-1.236,2.798-2.792,2.798c-0.768,0-1.26-0.311-1.785-0.617
		c-5.822-3.453-13.885-5.748-22.716-5.748c-4.528,0-8.439,0.632-11.674,1.495c-0.699,0.192-1.089,0.398-1.739,0.398
		c-1.539,0-2.797-1.256-2.797-2.803c0-1.521,0.736-2.569,2.223-2.99C1640.278,1658.699,1644.385,1657.847,1650.359,1657.847z
		 M1650.851,1669.529c7.827,0,14.803,1.795,20.805,5.394c0.898,0.521,1.421,1.051,1.421,2.377c0,1.291-1.05,2.239-2.228,2.239
		c-0.577,0-0.971-0.201-1.509-0.533c-5.188-3.137-11.653-4.784-18.512-4.784c-3.829,0-7.681,0.491-11.283,1.24
		c-0.585,0.128-1.324,0.353-1.764,0.353c-1.359,0-2.264-1.079-2.264-2.246c0-1.507,0.866-2.25,1.947-2.459
		C1641.877,1670.104,1646.28,1669.529,1650.851,1669.529z"/>
</g>
<g>
	<polyline fill="#DBDADA" points="646.779,73.36 646.779,73.472 646.89,73.472 646.999,73.582 646.999,73.693 646.89,73.693 
		646.779,73.472 646.779,73.36 	"/>
	<polyline fill="#DBDADA" points="646.779,73.36 646.669,73.141 646.558,72.923 646.558,73.031 646.669,73.031 646.779,73.031 
		646.779,73.141 646.779,73.252 646.779,73.36 	"/>
	<polyline fill="#DBDADA" points="687.645,58.271 688.197,59.373 687.865,59.813 686.873,59.924 686.323,59.813 686.213,60.254 
		686.103,60.475 686.103,60.915 685.883,61.245 685.443,61.245 685.443,62.017 685.222,62.457 684.67,62.898 684.34,62.457 
		684.449,62.017 684.781,61.245 684.892,60.584 684.561,58.712 684.781,58.271 685.773,58.492 686.323,58.382 685.992,58.052 
		686.103,57.61 686.323,57.169 685.773,56.509 685.222,54.968 685.773,53.204 685.992,51.442 686.654,50.12 687.204,49.9 
		687.755,49.9 688.085,50.561 688.197,51.222 688.197,51.772 688.306,52.324 687.755,53.314 687.865,55.738 687.645,56.068 
		687.755,56.289 688.306,56.618 688.306,56.84 687.976,57.28 687.645,57.72 687.645,58.271 	"/>
	<polyline fill="#DBDADA" points="695.576,43.071 695.356,43.291 694.915,43.182 694.585,42.96 694.585,42.52 694.804,42.3 
		695.245,42.079 695.686,42.3 695.686,42.41 695.686,42.74 695.576,42.851 695.576,43.071 	"/>
	<polyline fill="#DBDADA" points="699.651,54.196 699.432,55.408 699.101,56.179 698.551,56.84 698.329,57.5 697.999,58.271 
		698.329,58.822 698.659,59.263 698.551,59.594 698.109,60.475 697.779,60.364 697.888,59.924 697.999,59.704 697.888,59.594 
		697.888,59.483 697.669,59.263 697.448,59.042 696.457,58.712 695.906,58.822 695.906,59.153 695.686,59.483 695.135,59.373 
		694.804,58.933 693.703,59.153 693.483,59.924 693.483,60.915 693.043,61.466 692.602,62.568 692.273,62.457 691.281,61.906 
		690.949,62.127 690.289,62.568 689.848,62.788 689.298,62.568 688.967,62.677 688.527,63.008 688.197,62.788 688.085,62.237 
		687.755,61.906 687.865,61.466 688.527,60.915 689.188,60.475 689.848,59.704 689.958,60.475 690.178,60.475 690.508,60.475 
		690.949,60.144 691.72,59.813 691.499,59.042 691.281,58.492 691.281,57.61 691.281,57.5 691.39,56.84 691.281,56.729 
		691.281,56.398 691.39,55.959 690.949,55.628 691.17,55.077 692.051,55.298 692.273,54.856 692.273,54.086 692.381,52.875 
		692.602,51.883 693.152,51.001 693.483,50.671 693.924,50.01 694.474,48.468 694.585,47.916 694.695,47.807 695.356,46.705 
		695.576,44.832 696.016,44.502 696.568,44.393 697.007,43.511 697.558,43.071 699.211,42.41 699.982,41.638 700.202,41.748 
		700.202,42.74 700.423,43.291 700.423,44.173 700.312,44.723 700.092,44.832 699.542,44.943 698.659,45.272 698.659,46.375 
		698.22,48.247 699.101,49.569 698.88,50.34 698.88,51.442 698.99,52.213 698.99,53.755 699.651,54.196 	"/>
	<polyline fill="#DBDADA" points="691.72,48.688 691.06,49.129 690.398,48.799 690.289,48.026 690.289,46.816 690.618,46.046 
		690.839,45.053 690.729,44.393 690.508,44.173 689.627,44.062 688.746,43.291 688.857,42.631 689.188,42.41 689.738,41.97 
		689.738,41.638 689.407,40.758 689.627,40.207 690.178,40.207 690.398,40.427 690.729,41.309 690.618,41.638 690.618,42.52 
		690.839,42.96 692.602,43.952 693.152,44.393 693.372,44.723 693.593,45.494 692.712,47.587 691.72,48.688 	"/>
	<polyline fill="#DBDADA" points="708.023,47.587 708.904,55.628 709.014,57.39 709.124,57.94 708.573,58.052 708.243,58.052 
		707.912,58.161 707.363,58.382 707.251,58.822 707.251,59.373 706.811,59.813 706.37,60.033 705.71,60.144 705.49,60.475 
		705.269,60.475 704.94,60.805 704.609,61.136 704.609,61.576 704.279,61.797 703.616,61.797 703.285,62.017 702.956,62.237 
		702.515,62.457 702.186,62.348 702.405,61.576 702.736,60.915 702.846,60.033 702.625,59.042 702.186,58.603 701.855,58.052 
		701.524,57.72 701.413,57.169 701.744,56.729 701.965,56.289 701.855,56.179 701.524,55.738 701.413,55.519 701.524,55.077 
		701.195,54.525 701.304,54.196 701.634,53.425 701.413,53.095 700.532,52.654 700.532,52.324 700.532,51.661 700.312,51.111 
		700.532,51.111 701.195,51.222 701.304,50.891 701.195,49.9 701.195,49.68 701.195,49.239 701.083,49.019 700.863,48.799 
		701.195,48.247 701.413,47.916 701.634,47.697 701.744,47.477 701.744,47.146 701.524,46.926 701.304,46.596 701.083,46.266 
		701.083,45.604 700.974,44.612 700.974,44.393 701.083,43.621 701.083,43.071 701.195,42.41 701.413,41.858 701.524,41.418 
		701.634,40.317 701.965,39.766 702.186,38.886 702.515,39.216 704.279,39.656 704.167,39.876 708.023,40.867 708.133,41.528 
		707.802,42.851 707.802,43.182 707.912,43.401 707.912,43.621 707.912,43.842 707.802,44.173 707.583,44.281 707.472,44.612 
		707.363,44.832 707.251,45.163 707.251,45.494 707.142,45.935 707.251,46.375 707.363,46.705 707.583,47.036 708.023,47.587 	"/>
	<polyline fill="#DBDADA" points="686.213,11.128 686.213,16.524 690.069,15.753 690.178,16.304 690.069,16.524 689.958,16.965 
		689.958,17.516 690.178,18.396 690.289,18.947 690.398,19.718 690.508,20.05 690.398,20.49 690.289,20.93 690.069,21.591 
		689.958,21.812 690.069,22.031 690.069,22.143 690.178,22.472 690.178,22.692 689.958,22.913 689.848,23.134 689.627,23.574 
		689.627,23.904 689.517,24.235 689.738,24.785 689.848,25.115 689.848,25.557 689.848,25.776 689.848,26.106 689.958,26.438 
		690.069,26.658 690.398,26.878 690.618,27.208 690.729,27.539 690.839,27.759 691.06,28.09 691.17,28.31 691.83,28.641 
		694.804,30.184 696.787,31.174 699.761,35.029 699.761,35.359 699.542,35.911 699.432,36.572 698.659,36.902 698.44,36.792 
		697.999,36.131 697.558,35.139 697.228,35.25 697.228,35.58 697.117,35.911 697.558,36.792 698.329,37.783 698.88,38.886 
		698.77,39.656 698.44,39.876 697.669,40.207 697.338,40.646 697.448,41.088 697.117,41.309 697.007,42.079 696.457,42.188 
		696.126,41.748 696.016,40.867 695.466,40.427 695.135,39.766 694.474,39.656 693.924,40.758 693.703,41.088 693.593,41.638 
		693.043,41.638 692.932,41.418 692.823,41.309 692.823,40.978 692.823,40.097 692.823,39.437 693.043,38.995 693.593,38.443 
		693.814,38.113 693.924,37.673 693.814,37.122 693.814,36.462 693.924,36.021 694.253,35.47 694.365,35.139 694.804,34.479 
		694.915,34.038 694.915,33.708 695.025,33.047 695.025,32.606 695.135,32.275 695.025,31.725 694.695,30.844 694.253,31.174 
		693.924,31.505 693.814,32.275 693.703,32.275 693.372,32.165 692.932,32.056 692.491,31.614 692.273,30.954 692.712,30.403 
		692.273,29.853 691.72,29.853 691.611,30.403 691.611,30.844 691.499,31.284 691.941,32.056 692.932,32.716 693.703,33.487 
		693.814,34.368 693.483,34.699 693.262,35.139 693.262,35.69 693.043,35.911 692.823,35.802 692.602,35.029 692.381,34.589 
		691.83,34.258 691.39,34.038 690.839,34.038 690.508,34.038 690.069,34.038 689.848,33.708 689.848,33.378 689.738,32.716 
		689.298,32.165 688.967,31.835 688.746,31.284 688.085,31.395 688.085,30.623 687.865,30.072 687.424,29.853 687.094,29.522 
		687.535,28.641 687.315,27.87 687.094,26.988 686.654,26.218 685.773,25.336 685.663,25.226 685.883,24.565 686.323,23.794 
		686.873,22.692 687.315,21.922 687.315,21.149 687.424,20.49 686.873,19.938 686.323,20.82 686.323,21.149 686.213,21.591 
		686.213,22.031 685.883,22.362 685.663,22.913 685.222,24.235 685.001,24.235 684.449,24.015 684.23,24.235 684.781,25.446 
		684.892,25.887 685.222,26.106 685.663,26.327 685.883,26.658 686.103,26.878 685.992,27.099 685.663,27.43 685.552,27.979 
		685.663,28.751 685.883,29.411 685.992,29.853 685.883,30.184 685.883,30.403 686.213,30.844 686.213,31.284 686.323,31.614 
		686.873,31.725 686.873,31.835 686.434,32.275 686.544,32.606 686.544,33.158 686.434,33.708 686.765,34.148 687.094,34.479 
		687.645,34.699 689.077,34.699 689.077,34.919 687.645,35.359 687.645,35.69 687.755,35.911 687.645,36.572 687.755,37.343 
		687.424,37.783 686.984,38.224 686.873,38.774 686.984,39.216 686.765,39.987 686.323,40.097 685.663,39.546 685.331,39.104 
		685.663,38.334 685.331,38.113 685.001,38.334 684.449,38.113 684.23,37.453 684.119,37.563 684.119,38.113 682.689,38.113 
		681.587,38.003 680.485,37.673 680.595,38.774 680.595,39.437 680.595,39.876 680.925,40.097 681.365,40.097 681.806,39.766 
		682.027,39.766 682.358,39.656 682.578,39.987 682.908,40.097 683.239,40.207 683.9,40.427 683.79,41.088 683.79,41.309 
		683.79,41.638 683.9,42.3 683.9,42.96 684.009,43.511 684.119,43.842 684.23,44.393 683.569,44.393 683.239,44.723 684.009,45.053 
		684.34,45.715 683.79,46.046 683.239,46.485 683.459,46.926 684.34,46.926 684.449,47.807 684.009,48.247 683.239,48.468 
		682.027,48.799 681.365,49.129 680.705,48.799 680.485,49.35 680.705,49.9 681.255,50.12 681.365,50.891 682.027,51.222 
		682.247,51.552 682.136,51.772 682.136,51.993 682.247,52.324 682.468,52.213 682.689,52.324 682.468,52.544 683.019,54.525 
		683.129,56.068 682.578,57.169 682.578,58.933 682.908,59.594 682.798,60.475 682.578,60.475 682.468,60.475 682.468,60.364 
		682.358,60.364 682.247,60.364 682.136,60.364 682.136,60.475 682.027,60.475 682.027,60.584 682.027,60.694 682.027,60.805 
		682.027,60.915 682.027,61.025 681.917,61.025 682.027,61.025 682.027,61.136 682.027,61.245 682.027,61.355 682.027,61.576 
		682.027,61.687 682.027,61.576 682.136,61.576 682.136,61.687 682.247,61.687 682.247,61.797 682.358,61.797 682.358,61.906 
		682.358,62.017 682.247,62.017 682.358,62.127 682.358,62.237 682.358,62.348 682.247,62.237 682.247,62.348 682.136,62.348 
		682.136,62.457 682.027,62.457 681.917,62.568 682.027,62.568 681.917,62.568 681.917,62.677 681.917,62.788 681.917,62.898 
		682.027,63.008 681.917,63.118 681.806,63.228 681.806,63.339 681.697,63.228 681.697,63.339 681.587,63.339 681.587,63.447 
		681.587,63.559 681.476,63.559 681.365,63.559 681.365,63.669 681.255,63.778 681.146,63.778 681.146,63.669 681.034,63.669 
		681.034,63.559 681.034,63.447 680.925,63.447 680.815,63.447 680.815,63.339 680.705,63.339 680.595,63.228 680.375,62.898 
		680.264,63.008 680.485,63.228 680.485,63.339 680.485,63.447 680.595,63.559 680.705,63.559 680.815,63.669 680.705,63.778 
		680.595,63.778 680.485,63.89 680.485,63.778 680.485,63.89 680.375,63.89 680.375,63.999 680.264,63.999 680.155,63.999 
		680.044,64.109 679.935,64.22 679.824,64.329 679.824,64.44 679.714,64.44 679.714,64.55 679.824,64.661 679.824,64.771 
		679.824,64.881 679.824,65.101 679.824,65.212 679.824,65.321 679.824,65.432 679.824,65.541 679.824,65.651 679.935,65.763 
		680.044,65.872 680.044,65.982 679.935,66.092 680.044,66.092 680.044,66.202 680.044,66.312 680.044,66.422 680.044,66.533 
		680.044,66.643 680.044,66.753 680.044,66.862 680.044,66.974 679.935,67.084 679.824,67.193 679.714,67.304 679.714,67.413 
		679.714,67.524 679.604,67.524 679.493,67.635 679.383,67.635 679.274,67.854 679.163,67.965 679.163,68.076 679.163,68.185 
		679.163,68.296 679.163,68.406 679.054,68.406 679.054,68.516 678.943,68.516 678.833,68.516 678.722,68.516 678.722,68.406 
		678.722,68.516 678.613,68.516 678.501,68.626 678.501,68.735 678.501,68.847 678.392,68.955 678.392,69.066 678.281,69.066 
		678.281,69.177 678.171,69.177 678.171,69.286 678.062,69.286 678.062,69.397 678.062,69.507 677.951,69.507 677.951,69.617 
		678.062,69.617 678.062,69.727 677.951,69.837 677.951,69.948 677.841,69.948 677.841,70.057 677.841,70.168 677.731,70.168 
		677.731,70.278 677.731,70.388 677.621,70.497 677.511,70.608 677.511,70.719 677.511,70.829 677.401,70.829 677.401,70.938 
		677.29,71.05 677.29,71.159 677.401,71.159 677.401,71.271 677.401,71.38 677.29,71.38 677.401,71.49 677.621,71.71 
		677.621,71.819 677.621,71.93 677.621,72.041 677.511,72.151 677.401,72.151 677.401,72.041 677.29,72.041 677.181,72.041 
		677.181,71.93 677.071,71.93 676.96,72.041 676.96,72.151 676.85,72.151 676.85,72.261 676.74,72.261 676.629,72.261 
		676.52,72.261 676.52,72.151 676.629,72.151 676.74,72.151 676.85,72.041 676.85,71.93 676.96,71.819 676.85,71.819 676.74,71.6 
		676.629,71.6 676.52,71.49 676.409,71.38 676.19,71.159 676.079,71.05 676.079,70.938 675.969,70.829 675.859,70.829 
		675.859,70.719 675.747,70.719 675.747,70.829 675.638,70.719 675.638,70.608 675.527,70.608 675.419,70.608 675.198,70.608 
		675.198,70.497 675.087,70.497 675.087,70.608 674.977,70.497 674.867,70.497 674.756,70.497 674.756,70.608 674.647,70.608 
		674.536,70.497 674.427,70.497 674.317,70.497 674.317,70.388 674.206,70.388 673.987,70.388 673.875,70.388 673.766,70.388 
		673.325,70.388 673.215,70.388 673.105,70.388 673.105,70.497 672.994,70.497 672.885,70.608 672.665,70.719 672.665,70.829 
		672.445,70.829 672.333,70.829 672.224,70.719 672.115,70.719 672.003,70.719 672.003,70.608 671.893,70.608 671.893,70.719 
		671.782,70.719 671.782,70.608 671.673,70.719 671.673,70.608 671.563,70.608 671.452,70.608 671.342,70.608 671.233,70.608 
		671.121,70.719 671.012,70.719 670.902,70.719 670.792,70.719 670.682,70.719 670.682,70.829 670.572,70.829 670.462,70.829 
		670.351,70.829 670.351,70.938 670.24,70.938 670.131,70.938 670.02,70.938 670.02,71.05 669.911,70.938 669.801,70.938 
		669.801,71.05 669.691,71.05 669.58,71.05 669.47,71.05 669.361,71.05 669.361,71.159 669.249,71.159 669.14,71.159 
		669.029,71.159 668.919,71.159 668.919,71.271 668.809,71.271 668.588,71.271 668.478,71.271 668.478,71.38 668.367,71.38 
		668.258,71.38 668.148,71.38 668.038,71.38 668.038,71.49 667.927,71.49 667.818,71.49 667.707,71.6 667.597,71.6 667.488,71.6 
		667.377,71.6 667.268,71.6 667.157,71.6 667.047,71.6 667.047,71.71 666.937,71.71 666.826,71.71 666.716,71.71 666.606,71.71 
		666.495,71.71 666.386,71.71 666.275,71.71 666.165,71.819 666.056,71.71 665.945,71.71 665.835,71.819 665.835,71.71 
		665.724,71.71 665.724,71.819 665.615,71.819 665.503,71.819 665.394,71.819 665.394,71.93 665.284,71.93 665.173,71.93 
		665.064,71.93 664.954,71.93 664.954,72.041 664.843,72.041 664.734,72.041 664.623,72.151 664.514,72.151 664.404,72.151 
		664.404,72.261 664.293,72.261 664.183,72.261 664.073,72.261 663.962,72.372 663.852,72.481 663.742,72.481 663.633,72.481 
		663.522,72.481 663.522,72.59 663.412,72.59 663.302,72.59 663.191,72.59 663.081,72.701 662.97,72.701 662.861,72.701 
		662.751,72.701 662.642,72.812 662.531,72.812 662.419,72.812 662.31,72.923 662.199,72.923 662.089,72.923 661.98,73.031 
		661.869,73.031 661.76,73.031 661.649,73.031 661.649,73.141 661.539,73.141 661.429,73.141 661.319,73.252 661.208,73.252 
		661.098,73.36 660.989,73.36 660.878,73.36 660.768,73.36 660.768,73.472 660.658,73.472 660.548,73.472 660.438,73.472 
		660.327,73.472 660.327,73.582 660.217,73.582 660.107,73.582 659.997,73.582 659.888,73.693 659.777,73.693 659.667,73.693 
		659.556,73.693 659.556,73.803 659.447,73.803 659.335,73.803 659.226,73.803 659.226,73.913 659.115,73.913 659.005,74.022 
		658.895,74.022 658.895,74.134 658.785,74.134 658.675,74.134 658.565,74.243 658.454,74.354 658.345,74.354 658.235,74.463 
		658.235,74.574 658.124,74.685 658.014,74.904 657.905,74.904 657.794,74.904 657.684,74.904 657.573,74.904 657.573,75.015 
		657.463,75.015 657.243,75.125 657.134,75.125 657.134,75.234 657.024,75.234 656.913,75.234 656.802,75.125 656.693,75.125 
		656.693,75.015 656.581,75.015 656.472,75.015 656.363,75.015 656.253,75.015 656.142,75.015 656.031,75.015 655.921,75.015 
		655.921,75.125 655.811,75.125 655.811,75.015 655.811,75.125 655.59,75.125 655.481,75.125 655.37,75.125 655.26,75.125 
		655.26,75.234 655.151,75.234 655.04,75.234 654.93,75.234 654.93,75.345 654.82,75.345 654.709,75.345 654.599,75.345 
		654.49,75.345 654.38,75.345 654.38,75.456 654.269,75.456 654.159,75.456 654.049,75.456 653.939,75.564 653.939,75.676 
		653.939,75.786 653.828,75.786 653.718,75.676 653.497,75.676 653.388,75.676 653.388,75.564 653.279,75.564 653.167,75.564 
		653.167,75.456 653.058,75.456 652.947,75.234 652.837,75.345 652.616,75.345 652.616,75.456 652.397,75.456 652.286,75.456 
		652.176,75.456 652.066,75.456 651.955,75.456 651.845,75.456 651.736,75.456 651.626,75.456 651.626,75.564 651.516,75.564 
		651.295,75.564 651.185,75.564 651.074,75.564 651.074,75.676 650.965,75.676 650.855,75.676 650.744,75.676 650.744,75.786 
		650.634,75.786 650.525,75.786 650.413,75.786 650.304,75.786 650.304,75.896 650.193,75.896 649.972,75.896 649.753,75.896 
		649.643,76.006 649.422,76.006 649.312,76.006 649.091,76.006 649.091,76.115 648.87,76.115 648.87,76.227 648.762,76.227 
		648.652,76.115 648.541,76.227 648.431,76.227 648.321,76.227 648.321,76.336 648.211,76.336 648.101,76.336 647.99,76.336 
		647.99,76.446 647.881,76.446 647.771,76.446 647.66,76.446 647.44,76.558 647.329,76.558 647.109,76.666 646.999,76.666 
		646.89,76.666 646.89,76.777 646.779,76.777 646.448,76.887 646.228,76.887 646.116,76.887 646.008,76.887 646.008,76.997 
		645.898,76.997 645.898,77.106 645.787,77.106 645.677,77.106 645.567,77.218 645.457,77.218 645.346,77.329 645.237,77.329 
		645.127,77.329 645.127,77.438 645.017,77.438 645.017,77.549 644.906,77.549 644.906,77.658 644.796,77.658 644.796,77.769 
		644.686,77.769 644.686,77.878 644.686,77.989 644.575,77.989 644.575,78.1 644.465,77.989 644.465,77.878 644.575,77.769 
		644.575,77.658 644.575,77.549 644.575,77.438 644.465,77.438 644.245,77.329 644.136,77.329 643.915,77.218 643.915,77.329 
		643.804,77.218 643.583,77.218 643.583,77.329 643.474,77.329 643.365,77.329 643.254,77.438 643.033,77.438 642.923,77.438 
		642.923,77.549 642.813,77.658 642.703,77.658 642.483,77.769 642.372,77.769 642.372,77.878 642.263,77.878 642.263,77.769 
		642.153,77.769 642.042,77.658 642.153,77.658 642.153,77.549 642.263,77.549 642.263,77.438 642.372,77.329 642.483,77.329 
		642.483,77.438 642.483,77.549 642.592,77.549 642.703,77.549 642.923,77.329 642.923,77.218 643.033,77.218 643.144,77.218 
		643.254,77.218 643.474,77.218 643.474,77.106 643.695,77.106 643.915,77.106 644.025,77.106 644.136,77.106 644.245,77.106 
		644.356,77.218 644.465,77.329 644.575,77.329 644.686,77.106 644.575,77.106 644.575,76.997 644.465,76.997 644.465,76.887 
		644.575,76.777 644.686,76.777 644.686,76.887 644.796,76.887 644.796,76.777 644.686,76.666 644.575,76.666 644.465,76.558 
		644.575,76.558 644.575,76.446 644.686,76.446 644.686,76.336 644.796,76.336 644.906,76.336 645.017,76.336 645.017,76.446 
		645.127,76.446 645.127,76.336 645.237,76.336 645.237,76.227 645.127,76.227 645.237,76.115 645.346,76.115 645.457,76.006 
		645.567,76.006 645.567,75.896 645.677,75.786 645.787,75.786 645.787,75.896 645.898,75.896 645.898,75.786 646.008,75.676 
		646.116,75.676 646.008,75.564 645.898,75.564 645.787,75.564 645.677,75.564 645.677,75.676 645.567,75.676 645.457,75.564 
		645.457,75.456 645.567,75.345 645.677,75.345 645.787,75.234 645.898,75.234 645.898,75.125 646.116,75.015 646.228,74.904 
		646.337,74.904 646.337,74.794 646.558,74.574 646.558,74.685 646.779,74.685 646.779,74.574 646.89,74.574 646.999,74.463 
		647.109,74.463 647.109,74.354 647.219,74.354 647.219,74.243 647.329,74.134 647.329,74.022 647.329,73.913 647.329,73.803 
		647.219,73.803 647.109,73.582 647.109,73.472 647.219,73.472 647.219,73.36 647.219,73.252 646.999,73.031 646.999,72.923 
		646.89,72.812 646.779,72.812 646.669,72.701 646.558,72.59 646.558,72.481 646.558,72.372 646.448,72.261 646.448,71.93 
		646.448,71.819 646.337,71.819 646.448,71.71 646.448,71.6 646.448,71.49 646.558,71.38 646.669,71.271 646.779,71.271 
		646.779,71.159 646.558,71.159 646.558,71.271 646.448,71.38 646.337,71.49 646.337,71.6 646.337,71.71 646.337,71.819 
		646.337,71.93 646.228,72.041 646.228,72.151 646.228,72.041 646.228,71.71 646.337,71.38 646.448,70.938 646.558,70.388 
		646.669,69.837 646.558,69.617 646.448,69.286 646.337,69.066 646.116,68.955 645.898,68.626 645.898,68.296 645.898,68.076 
		645.898,67.854 645.898,67.635 645.898,67.413 646.008,67.193 646.116,66.974 646.337,66.862 646.448,66.753 646.669,66.643 
		646.999,66.533 647.329,66.312 647.55,66.202 647.881,65.982 648.101,65.872 649.643,66.312 649.863,65.982 649.972,62.677 
		650.525,50.34 650.525,48.688 650.634,47.146 650.744,42.96 650.744,42.851 650.525,37.232 650.525,34.148 650.193,24.455 
		649.972,13.661 649.972,11.678 649.972,9.475 649.863,4.188 661.208,3.856 670.792,3.526 672.665,3.416 676.079,3.306 
		682.358,3.195 686.434,3.085 686.323,6.72 686.213,11.128 	"/>
</g>
<path fill="#010101" d="M681.562,1.271c-5.298,0-9.594,4.296-9.594,9.593c0,2.519,0.971,4.81,2.559,6.521
	c1.752,1.889,7.035,8.005,7.035,8.005c0.425,0,5.283-6.116,7.036-8.005c1.587-1.712,2.557-4.004,2.557-6.521
	C691.155,5.567,686.859,1.271,681.562,1.271z M681.562,14.413c-1.96,0-3.549-1.589-3.549-3.549c0-1.959,1.589-3.548,3.549-3.548
	c1.959,0,3.548,1.589,3.548,3.548C685.11,12.824,683.521,14.413,681.562,14.413z"/>
</svg>
