<?xml version="1.0" encoding="utf-8"?>
<!-- Generator: Adobe Illustrator 16.0.0, SVG Export Plug-In . SVG Version: 6.00 Build 0)  -->
<!DOCTYPE svg PUBLIC "-//W3C//DTD SVG 1.1//EN" "http://www.w3.org/Graphics/SVG/1.1/DTD/svg11.dtd">
<svg version="1.1" id="Layer_1" xmlns="http://www.w3.org/2000/svg" xmlns:xlink="http://www.w3.org/1999/xlink" x="0px" y="0px"
	 width="26.611px" height="23.104px" viewBox="0 0 26.611 23.104" enable-background="new 0 0 26.611 23.104" xml:space="preserve">
<path fill-rule="evenodd" clip-rule="evenodd" fill="#DBDADA" d="M2.414,22.536c0,0,0.045,0.479,1.938,0.479
	c1.893,0,2.326-0.114,2.395-0.387c0.068-0.274,0.319-0.935,0.41-1.209c0.177-0.526,0.411-2.485,2.373-2.485
	c1.961,0,2.805,2.121,2.805,2.121s0.227,0.609,0.404,1.155c0.108,0.336,0.332,0.6,0.531,0.669c0.525,0.182,2.417,0.341,2.964,0.114
	c0.548-0.228,0.639-0.296,0.753-0.662c0.114-0.365,0.979-2.85,1.527-2.873c0.547-0.023,0.912,0.41,2.417,0.523
	c1.507,0.114,5.089,0.14,5.68-5.131c0.526-4.674-3.694-6.34-3.694-6.34s0.318-2.417,0.046-4.013
	c-0.274-1.597-0.685-4.333-2.806-4.493c-2.121-0.16-3.239,3.968-3.33,4.333c-0.091,0.365-0.479,2.668-0.638,2.874
	c-0.16,0.206-0.183,0.068-0.183,0.068S7.613,2.65,2.504,7.667c0,0-1.463,0.202-2.121,1.733c-0.912,2.129,0.092,2.942,0.092,2.942
	s-0.075,1.243,0.054,2.736c0.092,1.048,0.341,2.221,0.539,3.17C1.614,20.871,2.414,22.536,2.414,22.536"/>
</svg>
