<?xml version="1.0" encoding="utf-8"?>
<!-- Generator: Adobe Illustrator 16.0.0, SVG Export Plug-In . SVG Version: 6.00 Build 0)  -->
<!DOCTYPE svg PUBLIC "-//W3C//DTD SVG 1.1//EN" "http://www.w3.org/Graphics/SVG/1.1/DTD/svg11.dtd">
<svg version="1.1" id="Layer_1" xmlns="http://www.w3.org/2000/svg" xmlns:xlink="http://www.w3.org/1999/xlink" x="0px" y="0px"
	 width="24.986px" height="24.971px" viewBox="0 0 24.986 24.971" enable-background="new 0 0 24.986 24.971" xml:space="preserve">
<path fill="#EA4C89" d="M21.32,3.658C18.877,1.222,15.934,0,12.492,0S6.107,1.222,3.664,3.658C1.223,6.104,0,9.043,0,12.485
	c0,3.443,1.223,6.381,3.664,8.822c2.443,2.441,5.387,3.664,8.828,3.664s6.385-1.223,8.828-3.664s3.664-5.379,3.664-8.822
	C24.984,9.043,23.764,6.104,21.32,3.658z M20.779,5.731c1.57,1.95,2.355,4.183,2.355,6.689c-2.508-0.551-4.969-0.679-7.393-0.385
	c-0.084-0.166-0.168-0.341-0.254-0.507c-0.215-0.507-0.449-1.038-0.703-1.595C17.506,8.833,19.504,7.428,20.779,5.731z
	 M12.492,1.845c2.676,0,5.035,0.893,7.076,2.677c-1.105,1.571-2.979,2.865-5.611,3.886c-1.232-2.25-2.549-4.353-3.949-6.309
	C10.816,1.93,11.645,1.845,12.492,1.845z M4.111,5.859c1.041-1.317,2.326-2.317,3.857-2.994c1.4,1.909,2.719,3.971,3.951,6.178
	c-3.443,0.892-6.734,1.32-9.879,1.276C2.381,8.661,3.068,7.174,4.111,5.859z M4.59,19.62c-1.83-2.039-2.742-4.418-2.742-7.135
	c0-0.088,0-0.192,0-0.317c3.654,0.084,7.307-0.426,10.965-1.53c0.297,0.638,0.572,1.253,0.826,1.848
	c-0.127,0.041-0.254,0.085-0.383,0.125c-1.271,0.383-2.475,0.957-3.6,1.721c-1.127,0.768-2.049,1.555-2.773,2.357
	c-0.723,0.811-1.242,1.424-1.561,1.85S4.758,19.325,4.59,19.62z M12.492,23.19c-2.42,0-4.611-0.768-6.566-2.297
	c0.086-0.17,0.213-0.383,0.385-0.637c0.17-0.252,0.49-0.67,0.957-1.24c0.467-0.578,0.986-1.117,1.562-1.625
	c0.572-0.514,1.348-1.061,2.322-1.658c0.98-0.596,2.043-1.082,3.189-1.463l0.062-0.064c1.059,2.801,1.805,5.498,2.229,8.09
	C15.316,22.89,13.936,23.19,12.492,23.19z M18.484,21.343c-0.424-2.379-1.127-4.906-2.105-7.584
	c2.297-0.381,4.506-0.232,6.627,0.447C22.543,17.224,21.033,19.599,18.484,21.343z"/>
</svg>
