<?xml version="1.0" encoding="utf-8"?>
<!-- Generator: Adobe Illustrator 19.2.1, SVG Export Plug-In . SVG Version: 6.00 Build 0)  -->
<svg version="1.1" id="Layer_1" xmlns="http://www.w3.org/2000/svg" xmlns:xlink="http://www.w3.org/1999/xlink" x="0px" y="0px"
	 width="30px" height="30px" viewBox="0 0 30 30" style="enable-background:new 0 0 30 30;" xml:space="preserve">
<style type="text/css">
	.st0{fill:#FFFFFF;}
</style>
<g>
	<path class="st0" d="M21.7,25.8H8.3c-2.3,0-4.1-1.8-4.1-4.1V8.3C4.2,6,6,4.2,8.3,4.2h13.4c2.3,0,4.1,1.8,4.1,4.1v13.4
		C25.8,24,24,25.8,21.7,25.8z M8.3,5.2c-1.7,0-3.1,1.4-3.1,3.1v13.4c0,1.7,1.4,3.1,3.1,3.1h13.4c1.7,0,3.1-1.4,3.1-3.1V8.3
		c0-1.7-1.4-3.1-3.1-3.1H8.3z"/>
	<g>
		<path class="st0" d="M14.2,9.3h1.1l4.8,10.5h-1.3l-1.2-2.8h-5.7l-1.2,2.8H9.4L14.2,9.3z M17.1,16l-2.4-5.3L12.4,16H17.1z"/>
	</g>
</g>
</svg>
