<?xml version="1.0" encoding="utf-8"?>
<!-- Generator: Adobe Illustrator 19.2.1, SVG Export Plug-In . SVG Version: 6.00 Build 0)  -->
<svg version="1.1" id="Layer_1" xmlns="http://www.w3.org/2000/svg" xmlns:xlink="http://www.w3.org/1999/xlink" x="0px" y="0px"
	 width="30px" height="30px" viewBox="0 0 30 30" style="enable-background:new 0 0 30 30;" xml:space="preserve">
<style type="text/css">
	.st0{fill:#FFFFFF;}
</style>
<g>
	<path class="st0" d="M21.1,12.5H8.9V3.7h12.2V12.5z M9.9,11.5h10.2V4.7H9.9V11.5z"/>
	<path class="st0" d="M28.4,26.3H16.2v-8.8h12.2V26.3z M17.2,25.3h10.2v-6.8H17.2V25.3z"/>
	<polygon class="st0" points="8.2,18 7.2,18 7.2,14.5 14.5,14.5 14.5,12 15.5,12 15.5,15.5 8.2,15.5 	"/>
	<polygon class="st0" points="22.8,18 21.8,18 21.8,15.5 15,15.5 15,14.5 22.8,14.5 	"/>
	<path class="st0" d="M13.8,26.3H1.6v-8.8h12.2V26.3z M2.6,25.3h10.2v-6.8H2.6V25.3z"/>
</g>
</svg>
