<?xml version="1.0" encoding="utf-8"?>
<!-- Generator: Adobe Illustrator 19.2.1, SVG Export Plug-In . SVG Version: 6.00 Build 0)  -->
<svg version="1.1" id="Layer_1" xmlns="http://www.w3.org/2000/svg" xmlns:xlink="http://www.w3.org/1999/xlink" x="0px" y="0px"
	 width="30px" height="30px" viewBox="0 0 30 30" style="enable-background:new 0 0 30 30;" xml:space="preserve">
<style type="text/css">
	.st0{fill:#FFFFFF;}
</style>
<path class="st0" d="M15,20.1c-2.8,0-5.1-2.3-5.1-5.1c0-2.8,2.3-5.1,5.1-5.1s5.1,2.3,5.1,5.1C20.1,17.8,17.8,20.1,15,20.1z M15,10.9
	c-2.2,0-4.1,1.8-4.1,4.1s1.8,4.1,4.1,4.1s4.1-1.8,4.1-4.1S17.2,10.9,15,10.9z"/>
<polyline class="st0" points="13.4,16.1 13.4,13.9 16.6,13.9 16.6,16.1 "/>
<path class="st0" d="M27.2,23.3H2.8V9.9h6.7l1-3.2h9.2l1,3.2h6.4V23.3z M3.8,22.3h22.3V10.9H20l-1-3.2h-7.8l-1,3.2H3.8V22.3z"/>
<circle class="st0" cx="15" cy="15" r="1"/>
</svg>
