<?xml version="1.0" encoding="utf-8"?>
<!-- Generator: Adobe Illustrator 19.2.1, SVG Export Plug-In . SVG Version: 6.00 Build 0)  -->
<svg version="1.1" id="Layer_1" xmlns="http://www.w3.org/2000/svg" xmlns:xlink="http://www.w3.org/1999/xlink" x="0px" y="0px"
	 width="30px" height="30px" viewBox="0 0 30 30" style="enable-background:new 0 0 30 30;" xml:space="preserve">
<style type="text/css">
	.st0{fill:#FFFFFF;}
	.st1{fill:#FFFFFF;stroke:#E14E2B;stroke-width:4;stroke-miterlimit:10;}
</style>
<g>
	<polygon class="st0" points="22.8,25.8 5.2,25.8 5.2,4.2 16.9,4.2 22.8,10 22.8,13.8 21.8,13.8 21.8,10.5 16.5,5.2 6.2,5.2 
		6.2,24.8 21.8,24.8 21.8,19.8 22.8,19.8 	"/>
	<polygon class="st0" points="22.3,10.8 16.2,10.8 16.2,4.7 17.2,4.7 17.2,9.8 22.3,9.8 	"/>
	<path class="st0" d="M24.8,20.3l-11.1,0v-6.5l11.1,0V20.3z M14.7,19.3l9.1,0v-4.5l-9.1,0V19.3z"/>
</g>
</svg>
