<?xml version="1.0" encoding="utf-8"?>
<!-- Generator: Adobe Illustrator 19.2.1, SVG Export Plug-In . SVG Version: 6.00 Build 0)  -->
<svg version="1.1" id="Layer_1" xmlns="http://www.w3.org/2000/svg" xmlns:xlink="http://www.w3.org/1999/xlink" x="0px" y="0px"
	 width="30px" height="30px" viewBox="0 0 30 30" style="enable-background:new 0 0 30 30;" xml:space="preserve">
<style type="text/css">
	.st0{fill:#FFFFFF;}
</style>
<g>
	<path class="st0" d="M22.7,13.5c-2,0-3.7-1.7-3.7-3.7s1.7-3.7,3.7-3.7s3.7,1.7,3.7,3.7S24.8,13.5,22.7,13.5z M22.7,7.1
		c-1.5,0-2.7,1.2-2.7,2.7s1.2,2.7,2.7,2.7s2.7-1.2,2.7-2.7S24.2,7.1,22.7,7.1z"/>
	<path class="st0" d="M7.3,18.7c-2,0-3.7-1.7-3.7-3.7s1.7-3.7,3.7-3.7S11,13,11,15S9.3,18.7,7.3,18.7z M7.3,12.3
		c-1.5,0-2.7,1.2-2.7,2.7s1.2,2.7,2.7,2.7S10,16.5,10,15S8.8,12.3,7.3,12.3z"/>
	<path class="st0" d="M22.7,23.9c-2,0-3.7-1.7-3.7-3.7c0-2,1.7-3.7,3.7-3.7s3.7,1.7,3.7,3.7C26.4,22.2,24.8,23.9,22.7,23.9z
		 M22.7,17.5c-1.5,0-2.7,1.2-2.7,2.7c0,1.5,1.2,2.7,2.7,2.7s2.7-1.2,2.7-2.7C25.4,18.7,24.2,17.5,22.7,17.5z"/>
	<rect x="14.3" y="13.1" transform="matrix(0.3967 -0.9179 0.9179 0.3967 -7.7245 24.5676)" class="st0" width="1" height="10.2"/>
	<rect x="9.6" y="11.4" transform="matrix(0.918 -0.3965 0.3965 0.918 -3.4925 6.8314)" class="st0" width="10.3" height="1"/>
</g>
</svg>
