<?xml version="1.0" encoding="utf-8"?>
<!-- Generator: Adobe Illustrator 19.2.1, SVG Export Plug-In . SVG Version: 6.00 Build 0)  -->
<svg version="1.1" id="Layer_1" xmlns="http://www.w3.org/2000/svg" xmlns:xlink="http://www.w3.org/1999/xlink" x="0px" y="0px"
	 width="30px" height="30px" viewBox="0 0 30 30" style="enable-background:new 0 0 30 30;" xml:space="preserve">
<style type="text/css">
	.st0{fill:#FFFFFF;}
</style>
<g>
	<rect x="7.9" y="15.6" class="st0" width="1" height="6.4"/>
	<rect x="5.2" y="18.3" class="st0" width="6.4" height="1"/>
	<circle class="st0" cx="21.4" cy="16.8" r="1"/>
	<circle class="st0" cx="21.4" cy="20.9" r="1"/>
	<circle class="st0" cx="19.4" cy="18.8" r="1"/>
	<circle class="st0" cx="23.5" cy="18.8" r="1"/>
	<path class="st0" d="M21.6,25.5H8.4c-3.7,0-6.8-3-6.8-6.8s3-6.8,6.8-6.8h13.3c3.7,0,6.8,3,6.8,6.8S25.4,25.5,21.6,25.5z M8.4,13
		c-3.2,0-5.8,2.6-5.8,5.8c0,3.2,2.6,5.8,5.8,5.8h13.3c3.2,0,5.8-2.6,5.8-5.8c0-3.2-2.6-5.8-5.8-5.8H8.4z"/>
	<path class="st0" d="M15.5,12.2l-1-0.1c0,0,0.4-4.6,5.4-4.6l4.1,0l-4.1,1C15.8,8.6,15.5,12.1,15.5,12.2z M24.1,8.6
		c-0.1,0-0.1,0-0.1,0l0,0L24.1,8.6l-4.1,0l4.1-1c0.3,0,3,0.1,3.2-3.1l1,0.1C27.9,8.4,24.8,8.6,24.1,8.6z"/>
</g>
</svg>
