<?xml version="1.0" encoding="utf-8"?>
<!-- Generator: Adobe Illustrator 19.2.1, SVG Export Plug-In . SVG Version: 6.00 Build 0)  -->
<svg version="1.1" id="Layer_1" xmlns="http://www.w3.org/2000/svg" xmlns:xlink="http://www.w3.org/1999/xlink" x="0px" y="0px"
	 width="30px" height="30px" viewBox="0 0 30 30" style="enable-background:new 0 0 30 30;" xml:space="preserve">
<style type="text/css">
	.st0{fill:#FFFFFF;}
</style>
<g>
	<path class="st0" d="M15,25.4C9.2,25.4,4.6,20.8,4.6,15S9.2,4.6,15,4.6S25.4,9.2,25.4,15S20.8,25.4,15,25.4z M15,5.6
		c-5.2,0-9.4,4.2-9.4,9.4s4.2,9.4,9.4,9.4s9.4-4.2,9.4-9.4S20.2,5.6,15,5.6z"/>
	<circle class="st0" cx="11.6" cy="12.5" r="1"/>
	<circle class="st0" cx="18.5" cy="12.5" r="1"/>
	<path class="st0" d="M15,21c-2.5,0-4.7-1.5-5.6-3.8l0.9-0.4c0.8,1.9,2.6,3.2,4.6,3.2c2.1,0,3.9-1.2,4.6-3.2l0.9,0.4
		C19.7,19.5,17.5,21,15,21z"/>
</g>
</svg>
