<?xml version="1.0" encoding="utf-8"?>
<!-- Generator: Adobe Illustrator 19.2.1, SVG Export Plug-In . SVG Version: 6.00 Build 0)  -->
<svg version="1.1" id="Layer_1" xmlns="http://www.w3.org/2000/svg" xmlns:xlink="http://www.w3.org/1999/xlink" x="0px" y="0px"
	 width="30px" height="30px" viewBox="0 0 30 30" style="enable-background:new 0 0 30 30;" xml:space="preserve">
<style type="text/css">
	.st0{fill:#FFFFFF;}
</style>
<g>
	<path class="st0" d="M14.6,26.9L6,22.3v-12l5.3-4.6V3.1h8.8V6l3.6,4.3l0.3,0.4v12L14.6,26.9z M7,21.7l7.7,4.1L23,22V11l-0.1-0.2
		l-3.9-4.6V4.1h-6.8v2L7,10.8V21.7z"/>
	<g>
		<g>
			<g>
				<polygon class="st0" points="15.2,26.9 14.2,26.9 14.2,12.7 5.9,10.9 6.1,9.9 15.2,11.9 				"/>
				<rect x="14.1" y="11.1" transform="matrix(0.9866 -0.1631 0.1631 0.9866 -1.6359 3.2703)" class="st0" width="10" height="1"/>
				<rect x="10.1" y="6.7" transform="matrix(0.216 -0.9764 0.9764 0.216 -2.8763 19.2756)" class="st0" width="1" height="9.4"/>
				<rect x="12.7" y="8.7" transform="matrix(0.6207 -0.7841 0.7841 0.6207 -0.7574 16.9133)" class="st0" width="8.9" height="1"/>
				
					<rect x="15.2" y="1.6" transform="matrix(3.279875e-02 -0.9995 0.9995 3.279875e-02 9.1371 21.4776)" class="st0" width="1" height="8.8"/>
			</g>
		</g>
	</g>
</g>
</svg>
