<?xml version="1.0" encoding="utf-8"?>
<!-- Generator: Adobe Illustrator 19.2.1, SVG Export Plug-In . SVG Version: 6.00 Build 0)  -->
<svg version="1.1" id="Layer_1" xmlns="http://www.w3.org/2000/svg" xmlns:xlink="http://www.w3.org/1999/xlink" x="0px" y="0px"
	 width="30px" height="30px" viewBox="0 0 30 30" style="enable-background:new 0 0 30 30;" xml:space="preserve">
<style type="text/css">
	.st0{fill:#FFFFFF;}
</style>
<g>
	<path class="st0" d="M7.3,26.1c-0.4,0-0.8-0.1-1.2-0.4C5.3,25,5.2,23.8,5.8,23l3.6-4.5l2.6-0.3l0.3,2.6l-3.6,4.5
		C8.4,25.8,7.8,26.1,7.3,26.1z M9.9,19.5l-3.4,4.2c-0.3,0.4-0.2,0.9,0.1,1.2c0.2,0.1,0.3,0.2,0.5,0.2c0.3,0,0.5-0.1,0.7-0.3l3.4-4.2
		l-0.1-1.2L9.9,19.5z"/>
	<g>
		<line class="st0" x1="11.5" y1="18.9" x2="17.7" y2="11.1"/>
		<rect x="9.6" y="14.5" transform="matrix(0.623 -0.7822 0.7822 0.623 -6.2388 17.0823)" class="st0" width="10.1" height="1"/>
	</g>
	<rect x="17" y="4.2" transform="matrix(0.6053 -0.796 0.796 0.6053 -1.8642 18.29)" class="st0" width="1" height="13.6"/>
	<path class="st0" d="M17.5,18.1c-1,0-1.9-0.2-2.9-0.6c-1.7-0.8-3.1-2.2-3.8-3.9c-0.7-1.8-0.6-3.7,0.1-5.4c1.1-2.6,3.7-4.2,6.5-4.2
		c1,0,1.9,0.2,2.9,0.6c3.6,1.6,5.2,5.8,3.6,9.4C22.9,16.5,20.3,18.1,17.5,18.1z M17.5,4.9c-2.4,0-4.6,1.4-5.6,3.6
		c-0.7,1.5-0.7,3.1-0.1,4.7c0.6,1.5,1.7,2.7,3.2,3.4c0.8,0.3,1.6,0.5,2.5,0.5c2.4,0,4.6-1.4,5.6-3.6c1.4-3.1,0-6.7-3.1-8
		C19.2,5.1,18.4,4.9,17.5,4.9z"/>
</g>
</svg>
