<?xml version="1.0" encoding="utf-8"?>
<!-- Generator: Adobe Illustrator 16.0.0, SVG Export Plug-In . SVG Version: 6.00 Build 0)  -->
<!DOCTYPE svg PUBLIC "-//W3C//DTD SVG 1.1//EN" "http://www.w3.org/Graphics/SVG/1.1/DTD/svg11.dtd">
<svg version="1.1" id="Layer_1" xmlns="http://www.w3.org/2000/svg" xmlns:xlink="http://www.w3.org/1999/xlink" x="0px" y="0px"
	 width="72.266px" height="95.26px" viewBox="0 0 72.266 95.26" enable-background="new 0 0 72.266 95.26" xml:space="preserve">
<path fill="#E24E2B" d="M34.628,95.26L0,76.909V28.82l21.212-18.538V0h35.08v11.475l14.576,17.146l1.397,1.77v47.964L34.628,95.26z
	 M4,74.501L34.772,90.81l33.493-15.043V31.778l-0.491-0.624L52.292,12.945V4h-27.08v8.099L4,30.636V74.501z"/>
<g>
	<defs>
		<polygon id="SVGID_1_" points="69.345,29.916 54.292,12.21 54.292,2 23.212,2 23.212,11.19 2,29.728 2,75.705 34.7,93.035 
			70.266,77.061 70.266,31.084 		"/>
	</defs>
	<clipPath id="SVGID_2_">
		<use xlink:href="#SVGID_1_"  overflow="visible"/>
	</clipPath>
	<g clip-path="url(#SVGID_2_)">
		<polygon fill="#E24E2B" points="36.7,95.035 32.7,95.035 32.7,38.567 -0.385,31.249 0.479,27.343 36.7,35.355 		"/>
		
			<rect x="50.483" y="13.998" transform="matrix(0.1631 0.9866 -0.9866 0.1631 77.4905 -23.3063)" fill="#E24E2B" width="4" height="40.049"/>
		
			<rect x="-0.395" y="31.345" transform="matrix(0.9764 0.216 -0.216 0.9764 7.6349 -3.1762)" fill="#E24E2B" width="37.49" height="4"/>
		
			<rect x="42.496" y="6.802" transform="matrix(0.7841 0.6207 -0.6207 0.7841 24.8665 -22.3082)" fill="#E24E2B" width="4" height="35.567"/>
		
			<rect x="21.203" y="9.7" transform="matrix(0.9995 0.0328 -0.0328 0.9995 0.4043 -1.2639)" fill="#E24E2B" width="35.097" height="4"/>
	</g>
</g>
</svg>
