<?xml version="1.0" encoding="utf-8"?>
<!-- Generator: Adobe Illustrator 16.0.0, SVG Export Plug-In . SVG Version: 6.00 Build 0)  -->
<!DOCTYPE svg PUBLIC "-//W3C//DTD SVG 1.1//EN" "http://www.w3.org/Graphics/SVG/1.1/DTD/svg11.dtd">
<svg version="1.1" id="Layer_1" xmlns="http://www.w3.org/2000/svg" xmlns:xlink="http://www.w3.org/1999/xlink" x="0px" y="0px"
	 width="107.083px" height="90.492px" viewBox="0 0 107.083 90.492" enable-background="new 0 0 107.083 90.492"
	 xml:space="preserve">
<path fill="#E14E2B" d="M77.875,35.25h-48.75V0h48.75V35.25z M33.125,31.25h40.75V4h-40.75V31.25z"/>
<path fill="#E14E2B" d="M107.083,90.492h-48.75v-35.25h48.75V90.492z M62.333,86.492h40.75v-27.25h-40.75V86.492z"/>
<polygon fill="#E14E2B" points="26.375,57.242 22.375,57.242 22.375,43.166 51.458,43.166 51.458,33.25 55.458,33.25 55.458,47.166 
	26.375,47.166 "/>
<polygon fill="#E14E2B" points="84.708,57.242 80.708,57.242 80.708,47.166 53.458,47.166 53.458,43.166 84.708,43.166 "/>
<rect x="73.428" y="63.838" fill="#E14E2B" width="4.811" height="5.024"/>
<rect x="87.72" y="63.838" fill="#E14E2B" width="4.811" height="5.024"/>
<path fill="#E14E2B" d="M82.682,82.584c-4.921,0-9.378-2.912-11.357-7.419l3.663-1.607c1.34,3.054,4.36,5.027,7.694,5.027
	c3.382,0,6.419-2.014,7.738-5.13l3.684,1.559C92.157,79.612,87.674,82.584,82.682,82.584z"/>
<path fill="#E14E2B" d="M48.75,90.492H0v-35.25h48.75V90.492z M4,86.492h40.75v-27.25H4V86.492z"/>
</svg>
