<?xml version="1.0" encoding="utf-8"?>
<!-- Generator: Adobe Illustrator 16.0.0, SVG Export Plug-In . SVG Version: 6.00 Build 0)  -->
<!DOCTYPE svg PUBLIC "-//W3C//DTD SVG 1.1//EN" "http://www.w3.org/Graphics/SVG/1.1/DTD/svg11.dtd">
<svg version="1.1" id="Layer_1" xmlns="http://www.w3.org/2000/svg" xmlns:xlink="http://www.w3.org/1999/xlink" x="0px" y="0px"
	 width="82.582px" height="90.333px" viewBox="0 0 82.582 90.333" enable-background="new 0 0 82.582 90.333" xml:space="preserve">
<polygon fill="#E14E2B" points="74.333,90.333 0,90.333 0,0 50.867,0 74.333,23.335 74.333,42.333 70.333,42.333 70.333,24.998 
	49.217,4 4,4 4,86.333 70.333,86.333 70.333,66.412 74.333,66.412 "/>
<polygon fill="#E14E2B" points="72.333,26.167 48.167,26.167 48.167,2 52.167,2 52.167,22.167 72.333,22.167 "/>
<path fill="#E14E2B" d="M82.582,68.413l-44.499-0.001V42.246l44.499,0.001V68.413z M42.083,64.412l36.499,0.001V46.247
	l-36.499-0.001V64.412z"/>
<path fill="#FFFFFF" stroke="#E14E2B" stroke-width="4" stroke-miterlimit="10" d="M49.333,2"/>
</svg>
