<?xml version="1.0" encoding="utf-8"?>
<!-- Generator: Adobe Illustrator 16.0.0, SVG Export Plug-In . SVG Version: 6.00 Build 0)  -->
<!DOCTYPE svg PUBLIC "-//W3C//DTD SVG 1.1//EN" "http://www.w3.org/Graphics/SVG/1.1/DTD/svg11.dtd">
<svg version="1.1" id="Layer_1" xmlns="http://www.w3.org/2000/svg" xmlns:xlink="http://www.w3.org/1999/xlink" x="0px" y="0px"
	 width="123.292px" height="90.5px" viewBox="0 0 123.292 90.5" enable-background="new 0 0 123.292 90.5" xml:space="preserve">
<polygon fill="#E24E2B" points="106.375,90.5 0,90.5 0,0 106.375,0 106.375,10.5 102.375,10.5 102.375,4 4,4 4,86.5 102.375,86.5 
	102.375,78.5 106.375,78.5 "/>
<g>
	<line fill="#FFFFFF" x1="87.5" y1="16.842" x2="-0.001" y2="16.842"/>
	<rect x="-0.001" y="14.842" fill="#E24E2B" width="87.501" height="4"/>
</g>
<circle fill="#E24E2B" cx="9.5" cy="9.235" r="2.333"/>
<circle fill="#E24E2B" cx="16.5" cy="9.235" r="2.333"/>
<circle fill="#E24E2B" cx="23.5" cy="9.235" r="2.333"/>
<path fill="#E24E2B" d="M123.292,80.5H85.5V9.625h37.792V80.5z M89.5,76.5h29.792V13.625H89.5V76.5z"/>
<circle fill="#E24E2B" cx="104.396" cy="70.75" r="3.208"/>
<g>
	<line fill="#FFFFFF" x1="120.959" y1="63.009" x2="87.457" y2="63.009"/>
	<rect x="87.457" y="61.009" fill="#E24E2B" width="33.502" height="4"/>
</g>
</svg>
