<?xml version="1.0" encoding="utf-8"?>
<!-- Generator: Adobe Illustrator 16.0.0, SVG Export Plug-In . SVG Version: 6.00 Build 0)  -->
<!DOCTYPE svg PUBLIC "-//W3C//DTD SVG 1.1//EN" "http://www.w3.org/Graphics/SVG/1.1/DTD/svg11.dtd">
<svg version="1.1" xmlns="http://www.w3.org/2000/svg" xmlns:xlink="http://www.w3.org/1999/xlink" x="0px" y="0px"
	 width="52.521px" height="85.952px" viewBox="0 0 52.521 85.952" enable-background="new 0 0 52.521 85.952" xml:space="preserve">
<g id="Layer_1">
	<path fill="#E14E2B" d="M40.104,64.316H12.417L9.991,53.431C9.046,48.809,6.14,42.615,3.732,38.349l-0.397-0.66
		C1.145,33.867,0,29.548,0,25.163C0,11.288,11.288,0,25.163,0h2.196c13.875,0,25.163,11.288,25.163,25.163
		c0,4.386-1.146,8.705-3.314,12.491l-0.444,0.741c-2.382,4.222-5.29,10.417-6.226,15.002L40.104,64.316z M15.624,60.316h21.273
		l1.728-7.755c1.288-6.309,5.439-13.978,6.68-16.178l0.451-0.752c1.802-3.147,2.766-6.778,2.765-10.468
		C48.521,13.494,39.028,4,27.358,4h-2.196C13.494,4,4,13.494,4,25.163c0,3.689,0.962,7.321,2.784,10.503l0.404,0.671
		c1.268,2.246,5.418,9.913,6.715,16.259L15.624,60.316z"/>
	<path fill="#E14E2B" d="M17.998,81.332c1.528,2.718,4.936,4.62,8.263,4.62c3.326,0,6.734-1.902,8.262-4.62H17.998z"/>
	<polygon fill="#E14E2B" points="38.164,30.277 32.904,25.017 27.854,30.067 25.025,27.239 32.904,19.36 40.993,27.449 	"/>
	<polygon fill="#E14E2B" points="14.714,30.277 11.886,27.449 19.975,19.36 27.854,27.239 25.025,30.067 19.975,25.017 	"/>
	<polygon fill="#E14E2B" points="16.377,78.246 36.145,78.246 37.156,74.246 15.365,74.246 	"/>
	<polygon fill="#E14E2B" points="38.934,67.219 13.587,67.219 14.6,71.219 37.922,71.219 	"/>
</g>
<g id="Layer_4">
	<rect x="24.439" y="26.354" fill="#E14E2B" width="4" height="36.643"/>
</g>
</svg>
