<?xml version="1.0" encoding="utf-8"?>
<!-- Generator: Adobe Illustrator 16.0.0, SVG Export Plug-In . SVG Version: 6.00 Build 0)  -->
<!DOCTYPE svg PUBLIC "-//W3C//DTD SVG 1.1//EN" "http://www.w3.org/Graphics/SVG/1.1/DTD/svg11.dtd">
<svg version="1.1" id="Layer_1" xmlns="http://www.w3.org/2000/svg" xmlns:xlink="http://www.w3.org/1999/xlink" x="0px" y="0px"
	 width="76.868px" height="88.598px" viewBox="0 0 76.868 88.598" enable-background="new 0 0 76.868 88.598" xml:space="preserve">
<path fill="#E14E2B" d="M7.514,88.598c-1.704,0-3.375-0.589-4.705-1.658c-3.233-2.598-3.751-7.341-1.155-10.573l14.456-17.993
	l10.571-1.155l1.153,10.575L13.38,85.786C11.945,87.573,9.807,88.598,7.514,88.598z M18.189,62.171L4.772,78.872
	c-1.216,1.513-0.973,3.734,0.542,4.95c0.632,0.508,1.392,0.776,2.199,0.776c1.074,0,2.075-0.48,2.747-1.316l13.417-16.701
	l-0.54-4.95L18.189,62.171z"/>
<g>
	<line fill="#FFFFFF" x1="24.307" y1="60.092" x2="49.382" y2="28.616"/>
	
		<rect x="34.844" y="24.233" transform="matrix(0.7822 0.623 -0.623 0.7822 35.6584 -13.2947)" fill="#E14E2B" width="4" height="40.243"/>
</g>
<g>
	<path fill="#E14E2B" d="M34.562,29.272l4.321-0.616c0.539,3.142,1.416,5.517,4.075,7.538c4.143,3.149,9.773,1.968,13.017-2.298
		c3.244-4.266,2.832-9.945-1.311-13.096c-2.473-1.881-5.15-2.209-8.104-1.918l-0.303-4.67c3.575-0.403,7.044,0.039,11.031,3.071
		c6.554,4.983,7.328,13.524,2.626,19.707c-4.748,6.243-13.185,7.585-19.49,2.79C36.377,36.702,35.032,33.337,34.562,29.272z"/>
</g>
<rect x="21.337" y="26.399" transform="matrix(0.796 0.6053 -0.6053 0.796 27.0814 -23.5496)" fill="#E14E2B" width="54.276" height="4"/>
<path fill="#E14E2B" d="M48.463,56.798c-3.949,0-7.798-0.814-11.439-2.419c-6.938-3.058-12.271-8.636-15.016-15.706
	c-2.744-7.07-2.57-14.786,0.488-21.725C27.033,6.652,37.236,0,48.49,0c3.948,0,7.796,0.814,11.437,2.419
	c14.325,6.313,20.845,23.105,14.531,37.432C69.92,50.146,59.717,56.798,48.463,56.798z M48.49,4
	c-9.669,0-18.436,5.716-22.334,14.561c-2.628,5.962-2.776,12.59-0.419,18.665c2.357,6.074,6.938,10.866,12.899,13.493
	c3.13,1.38,6.437,2.08,9.826,2.08c9.669,0,18.436-5.715,22.335-14.561c5.424-12.309-0.177-26.735-12.484-32.159
	C55.185,4.7,51.879,4,48.49,4z"/>
</svg>
