<?xml version="1.0" encoding="utf-8"?>
<!-- Generator: Adobe Illustrator 16.0.0, SVG Export Plug-In . SVG Version: 6.00 Build 0)  -->
<!DOCTYPE svg PUBLIC "-//W3C//DTD SVG 1.1//EN" "http://www.w3.org/Graphics/SVG/1.1/DTD/svg11.dtd">
<svg version="1.1" id="Layer_1" xmlns="http://www.w3.org/2000/svg" xmlns:xlink="http://www.w3.org/1999/xlink" x="0px" y="0px"
	 width="54.998px" height="54.009px" viewBox="0 0 54.998 54.009" enable-background="new 0 0 54.998 54.009" xml:space="preserve">
<path fill="#FFFFFF" d="M27.5,0C12.45,0,0.251,12.09,0.251,27.005S12.45,54.009,27.5,54.009c15.05,0,27.25-12.09,27.25-27.004
	S42.55,0,27.5,0z M34.998,38.947l-0.8-14.111l-6.124,9.419h-0.087l-6.018-9.247l-0.79,13.938h-6.496l1.397-24.392h6.496h0.056
	l5.498,9.171l5.472-9.171h6.603l1.397,24.392H34.998z M5.588,51.02c-0.016,1.528-1.28,2.755-2.822,2.739
	C1.223,53.744-0.016,52.492,0,50.963c0.016-1.529,1.28-2.758,2.823-2.741C4.366,48.238,5.604,49.491,5.588,51.02z M49.411,2.992
	c0.016-1.53,1.278-2.757,2.823-2.741c1.542,0.015,2.781,1.267,2.764,2.797c-0.015,1.528-1.278,2.754-2.82,2.738
	C50.633,5.771,49.396,4.52,49.411,2.992z"/>
</svg>
