<?xml version="1.0" encoding="utf-8"?>
<!-- Generator: Adobe Illustrator 16.0.0, SVG Export Plug-In . SVG Version: 6.00 Build 0)  -->
<!DOCTYPE svg PUBLIC "-//W3C//DTD SVG 1.1//EN" "http://www.w3.org/Graphics/SVG/1.1/DTD/svg11.dtd">
<svg version="1.1" id="Layer_1" xmlns="http://www.w3.org/2000/svg" xmlns:xlink="http://www.w3.org/1999/xlink" x="0px" y="0px"
	 width="54.338px" height="54px" viewBox="0 0 54.338 54" enable-background="new 0 0 54.338 54" xml:space="preserve">
<path fill="#E24E2A" d="M27.169,0C12.3,0,0.249,12.088,0.249,27S12.3,54,27.169,54c14.869,0,26.922-12.088,26.922-27
	S42.038,0,27.169,0z M34.577,38.94l-0.79-14.109l-6.05,9.418H27.65l-5.945-9.246L20.924,38.94h-6.418l1.381-24.388h6.418h0.055
	l5.432,9.169l5.406-9.169h6.523l1.38,24.388H34.577z M5.521,51.012c-0.016,1.527-1.264,2.755-2.788,2.739
	C1.208,53.735-0.015,52.483,0,50.955c0.016-1.529,1.265-2.758,2.789-2.741C4.313,48.229,5.536,49.483,5.521,51.012z M48.817,2.991
	c0.016-1.53,1.263-2.756,2.789-2.74c1.523,0.015,2.747,1.267,2.731,2.797c-0.016,1.528-1.265,2.753-2.788,2.738
	C50.024,5.77,48.802,4.518,48.817,2.991z"/>
</svg>
