<?xml version="1.0" encoding="utf-8"?>
<!-- Generator: Adobe Illustrator 16.0.0, SVG Export Plug-In . SVG Version: 6.00 Build 0)  -->
<!DOCTYPE svg PUBLIC "-//W3C//DTD SVG 1.1//EN" "http://www.w3.org/Graphics/SVG/1.1/DTD/svg11.dtd">
<svg version="1.1" id="Layer_1" xmlns="http://www.w3.org/2000/svg" xmlns:xlink="http://www.w3.org/1999/xlink" x="0px" y="0px"
	 width="39.967px" height="40.016px" viewBox="0 0 39.967 40.016" enable-background="new 0 0 39.967 40.016" xml:space="preserve">
<path fill="none" d="M39.966,20.01c0,5.523-1.949,10.233-5.855,14.143c-3.901,3.913-8.607,5.863-14.125,5.863
	c-5.514,0-10.225-1.95-14.125-5.863c-3.904-3.909-5.86-8.619-5.86-14.143S1.958,9.772,5.861,5.863C9.761,1.955,14.472,0,19.986,0
	c5.518,0,10.224,1.955,14.125,5.863C38.017,9.772,39.966,14.486,39.966,20.01z M24.724,10.514h-2.973
	c-1.24,0-2.275,0.464-3.115,1.396c-0.832,0.929-1.25,2.049-1.25,3.348v1.86h-3.162v3.079h3.162v9.305h3.621v-9.305h3.717v-3.079
	h-3.717v-2.23c0-0.307,0.078-0.554,0.233-0.741c0.151-0.188,0.327-0.281,0.511-0.281h2.973V10.514z"/>
</svg>
