<?xml version="1.0" encoding="utf-8"?>
<!-- Generator: Adobe Illustrator 19.2.1, SVG Export Plug-In . SVG Version: 6.00 Build 0)  -->
<svg version="1.1" id="Layer_1" xmlns="http://www.w3.org/2000/svg" xmlns:xlink="http://www.w3.org/1999/xlink" x="0px" y="0px"
	 width="40px" height="40px" viewBox="0 0 40 40" style="enable-background:new 0 0 40 40;" xml:space="preserve">
<style type="text/css">
	.st0{fill:#FFFFFF;}
</style>
<path class="st0" d="M40,20c0,5.5-2,10.2-5.9,14.1C30.2,38.1,25.5,40,20,40c-5.5,0-10.2-2-14.1-5.9C2,30.2,0,25.5,0,20
	S2,9.8,5.9,5.9C9.8,2,14.5,0,20,0c5.5,0,10.2,2,14.1,5.9C38,9.8,40,14.5,40,20z M29.7,14c-0.7,0.3-1.5,0.5-2.3,0.6
	c0.8-0.5,1.5-1.3,1.8-2.2c-0.8,0.5-1.6,0.8-2.5,1c-0.7-0.8-1.8-1.3-2.9-1.3c-2.2,0-4,1.8-4,4c0,0.3,0,0.6,0.1,0.9
	c-3.3-0.2-6.3-1.8-8.2-4.2c-0.3,0.6-0.5,1.3-0.5,2c0,1.4,0.7,2.6,1.7,3.3c-0.7,0-1.2-0.2-1.9-0.5c0,0,0,0,0,0.1
	c0,1.9,1.4,3.5,3.2,3.9c-0.3,0.1-0.7,0.1-1,0.1c-0.3,0-0.5,0-0.7-0.1c0.5,1.6,2,2.7,3.7,2.8c-1.4,1.1-3.1,1.7-5,1.7
	c-0.3,0-0.6,0-1-0.1c1.8,1.1,3.9,1.8,6.1,1.8c7.3,0,11.4-6.1,11.4-11.4c0-0.2,0-0.3,0-0.5C28.5,15.5,29.2,14.8,29.7,14z"/>
</svg>
