<?xml version="1.0" encoding="utf-8"?>
<!-- Generator: Adobe Illustrator 16.0.0, SVG Export Plug-In . SVG Version: 6.00 Build 0)  -->
<!DOCTYPE svg PUBLIC "-//W3C//DTD SVG 1.1//EN" "http://www.w3.org/Graphics/SVG/1.1/DTD/svg11.dtd">
<svg version="1.1" id="Layer_1" xmlns="http://www.w3.org/2000/svg" xmlns:xlink="http://www.w3.org/1999/xlink" x="0px" y="0px"
	 width="39.967px" height="40.016px" viewBox="0 0 39.967 40.016" enable-background="new 0 0 39.967 40.016" xml:space="preserve">
<path fill="#FFFFFF" d="M34.112,5.864C30.21,1.955,25.498,0,19.98,0C14.466,0,9.757,1.955,5.856,5.864C1.952,9.772,0,14.486,0,20.01
	s1.952,10.233,5.856,14.143c3.901,3.913,8.61,5.863,14.124,5.863c5.518,0,10.23-1.95,14.132-5.863
	c3.903-3.909,5.855-8.619,5.855-14.143S38.015,9.772,34.112,5.864z M16.566,21.145c0.495-0.698,0.992-1.162,1.012-1.18l5.82-6.1
	c0.123,0.128,0.238,0.269,0.344,0.417c0.432,0.605,0.652,1.295,0.652,2.049c0,0.538-0.174,1.424-0.994,2.587
	c-0.415,0.579-0.836,1.011-1.013,1.184l-5.819,6.1c-0.119-0.125-0.236-0.266-0.347-0.415c-0.432-0.608-0.65-1.299-0.65-2.05
	C15.571,23.197,15.746,22.31,16.566,21.145z M12.719,12.584c0.889,0,1.692,0.272,2.267,0.766c0.489,0.42,0.946,0.891,1.484,1.525
	l0.213,0.251l0.133-0.269c0.234-0.276,0.769-0.909,1.361-1.407c1.074-0.893,2.639-1.109,3.9-0.552
	c0.082,0.036,0.165,0.077,0.252,0.124l-5.682,5.946l-0.191,0.209c-0.777,0.839-2.076,2.241-2.143,4.318
	c-0.006,0.076-0.009,0.153-0.013,0.228l-3.415-3.64c-0.336-0.342-0.674-0.756-0.95-1.164c-0.793-1.163-0.961-2.048-0.961-2.589
	C8.975,14.266,10.655,12.584,12.719,12.584z M27.248,27.437c-0.889,0-1.691-0.272-2.266-0.767c-0.489-0.417-0.946-0.888-1.484-1.524
	l-0.213-0.253l-0.132,0.264c-0.185,0.222-0.749,0.898-1.365,1.41c-1.118,0.938-2.787,1.122-4.073,0.47l5.653-5.991l0.161-0.181
	c0.635-0.699,1.806-1.993,2.082-3.752l0.011-0.052c0.038-0.204,0.058-0.489,0.065-0.74l3.383,3.603
	c0.084,0.085,0.525,0.536,0.961,1.178c0.793,1.16,0.962,2.048,0.962,2.589C30.993,25.755,29.313,27.437,27.248,27.437z"/>
</svg>
